<svg xmlns="http://www.w3.org/2000/svg" xmlns:xlink="http://www.w3.org/1999/xlink" width="500" zoomAndPan="magnify" viewBox="0 0 375 262.499992" height="350" preserveAspectRatio="xMidYMid meet" version="1.0"><defs><clipPath id="a97734f4fe"><path d="M 0.355469 112 L 374.640625 112 L 374.640625 150 L 0.355469 150 Z M 0.355469 112 " clip-rule="nonzero"/></clipPath><clipPath id="bd65cf96e8"><path d="M 0.355469 224 L 374.640625 224 L 374.640625 262 L 0.355469 262 Z M 0.355469 224 " clip-rule="nonzero"/></clipPath><clipPath id="2a5eafe11d"><path d="M 0.355469 0 L 374.640625 0 L 374.640625 38 L 0.355469 38 Z M 0.355469 0 " clip-rule="nonzero"/></clipPath></defs><g clip-path="url(#a97734f4fe)"><path fill="#ffffff" d="M 355.929688 112.285156 L 19.070312 112.285156 C 18.457031 112.285156 17.847656 112.316406 17.238281 112.375 C 16.625 112.4375 16.019531 112.527344 15.417969 112.644531 C 14.820312 112.765625 14.226562 112.914062 13.636719 113.09375 C 13.050781 113.269531 12.476562 113.476562 11.910156 113.710938 C 11.34375 113.945312 10.789062 114.207031 10.25 114.496094 C 9.707031 114.785156 9.183594 115.097656 8.671875 115.441406 C 8.164062 115.78125 7.671875 116.144531 7.199219 116.535156 C 6.726562 116.921875 6.269531 117.335938 5.835938 117.765625 C 5.40625 118.199219 4.992188 118.65625 4.605469 119.128906 C 4.214844 119.601562 3.851562 120.09375 3.511719 120.601562 C 3.167969 121.113281 2.855469 121.636719 2.566406 122.179688 C 2.277344 122.71875 2.015625 123.273438 1.78125 123.839844 C 1.546875 124.40625 1.339844 124.980469 1.164062 125.566406 C 0.984375 126.15625 0.835938 126.75 0.714844 127.347656 C 0.597656 127.949219 0.507812 128.554688 0.445312 129.167969 C 0.386719 129.777344 0.355469 130.386719 0.355469 131 C 0.355469 131.613281 0.386719 132.226562 0.445312 132.835938 C 0.507812 133.445312 0.597656 134.050781 0.714844 134.652344 C 0.835938 135.253906 0.984375 135.847656 1.164062 136.433594 C 1.339844 137.019531 1.546875 137.597656 1.78125 138.164062 C 2.015625 138.726562 2.277344 139.28125 2.566406 139.824219 C 2.855469 140.363281 3.167969 140.886719 3.511719 141.398438 C 3.851562 141.90625 4.214844 142.398438 4.605469 142.871094 C 4.992188 143.347656 5.40625 143.800781 5.835938 144.234375 C 6.269531 144.667969 6.726562 145.078125 7.199219 145.46875 C 7.671875 145.855469 8.164062 146.21875 8.671875 146.5625 C 9.183594 146.902344 9.707031 147.214844 10.25 147.503906 C 10.789062 147.792969 11.34375 148.054688 11.910156 148.289062 C 12.476562 148.523438 13.050781 148.730469 13.636719 148.910156 C 14.226562 149.085938 14.820312 149.234375 15.417969 149.355469 C 16.019531 149.476562 16.625 149.566406 17.238281 149.625 C 17.847656 149.683594 18.457031 149.714844 19.070312 149.714844 L 355.929688 149.714844 C 356.542969 149.714844 357.152344 149.683594 357.761719 149.625 C 358.375 149.566406 358.980469 149.476562 359.582031 149.355469 C 360.179688 149.234375 360.773438 149.085938 361.363281 148.910156 C 361.949219 148.730469 362.523438 148.523438 363.089844 148.289062 C 363.65625 148.054688 364.210938 147.792969 364.75 147.503906 C 365.292969 147.214844 365.816406 146.902344 366.328125 146.5625 C 366.835938 146.21875 367.328125 145.855469 367.800781 145.46875 C 368.273438 145.078125 368.730469 144.667969 369.164062 144.234375 C 369.59375 143.800781 370.007812 143.347656 370.394531 142.871094 C 370.785156 142.398438 371.148438 141.90625 371.488281 141.398438 C 371.828125 140.886719 372.144531 140.363281 372.433594 139.824219 C 372.722656 139.28125 372.984375 138.726562 373.21875 138.160156 C 373.453125 137.597656 373.660156 137.019531 373.835938 136.433594 C 374.015625 135.847656 374.164062 135.253906 374.285156 134.652344 C 374.402344 134.050781 374.492188 133.445312 374.554688 132.835938 C 374.613281 132.226562 374.644531 131.613281 374.644531 131 C 374.644531 130.386719 374.613281 129.777344 374.554688 129.167969 C 374.492188 128.554688 374.402344 127.949219 374.285156 127.347656 C 374.164062 126.75 374.015625 126.15625 373.835938 125.566406 C 373.660156 124.980469 373.453125 124.40625 373.21875 123.839844 C 372.984375 123.273438 372.722656 122.71875 372.433594 122.179688 C 372.144531 121.636719 371.828125 121.113281 371.488281 120.601562 C 371.148438 120.09375 370.785156 119.601562 370.394531 119.128906 C 370.007812 118.65625 369.59375 118.199219 369.164062 117.765625 C 368.730469 117.335938 368.273438 116.921875 367.800781 116.535156 C 367.328125 116.144531 366.835938 115.78125 366.328125 115.441406 C 365.816406 115.097656 365.292969 114.785156 364.75 114.496094 C 364.210938 114.207031 363.65625 113.945312 363.089844 113.710938 C 362.523438 113.476562 361.949219 113.269531 361.363281 113.09375 C 360.773438 112.914062 360.179688 112.765625 359.582031 112.644531 C 358.980469 112.527344 358.375 112.4375 357.761719 112.375 C 357.152344 112.316406 356.542969 112.285156 355.929688 112.285156 Z M 355.929688 112.285156 " fill-opacity="1" fill-rule="nonzero"/></g><g clip-path="url(#bd65cf96e8)"><path fill="#ffffff" d="M 355.929688 224.570312 L 19.070312 224.570312 C 18.457031 224.570312 17.847656 224.601562 17.238281 224.664062 C 16.625 224.722656 16.019531 224.8125 15.417969 224.933594 C 14.820312 225.050781 14.226562 225.199219 13.636719 225.378906 C 13.050781 225.554688 12.476562 225.761719 11.910156 225.996094 C 11.34375 226.230469 10.789062 226.492188 10.25 226.78125 C 9.707031 227.070312 9.183594 227.386719 8.671875 227.726562 C 8.164062 228.066406 7.671875 228.429688 7.199219 228.820312 C 6.726562 229.210938 6.269531 229.621094 5.835938 230.054688 C 5.40625 230.488281 4.992188 230.941406 4.605469 231.414062 C 4.214844 231.886719 3.851562 232.378906 3.511719 232.890625 C 3.167969 233.398438 2.855469 233.925781 2.566406 234.464844 C 2.277344 235.003906 2.015625 235.558594 1.78125 236.125 C 1.546875 236.691406 1.339844 237.265625 1.164062 237.855469 C 0.984375 238.441406 0.835938 239.035156 0.714844 239.636719 C 0.597656 240.238281 0.507812 240.84375 0.445312 241.453125 C 0.386719 242.0625 0.355469 242.671875 0.355469 243.285156 C 0.355469 243.898438 0.386719 244.511719 0.445312 245.121094 C 0.507812 245.730469 0.597656 246.335938 0.714844 246.9375 C 0.835938 247.539062 0.984375 248.132812 1.164062 248.71875 C 1.339844 249.304688 1.546875 249.882812 1.78125 250.449219 C 2.015625 251.015625 2.277344 251.566406 2.566406 252.109375 C 2.855469 252.648438 3.167969 253.175781 3.511719 253.683594 C 3.851562 254.191406 4.214844 254.683594 4.605469 255.160156 C 4.992188 255.632812 5.40625 256.085938 5.835938 256.519531 C 6.269531 256.953125 6.726562 257.363281 7.199219 257.753906 C 7.671875 258.140625 8.164062 258.507812 8.671875 258.847656 C 9.183594 259.1875 9.707031 259.503906 10.25 259.792969 C 10.789062 260.082031 11.34375 260.34375 11.910156 260.578125 C 12.476562 260.8125 13.050781 261.015625 13.636719 261.195312 C 14.226562 261.371094 14.820312 261.523438 15.417969 261.640625 C 16.019531 261.761719 16.625 261.851562 17.238281 261.910156 C 17.847656 261.972656 18.457031 262 19.070312 262 L 355.929688 262 C 356.542969 262 357.152344 261.972656 357.761719 261.910156 C 358.375 261.851562 358.980469 261.761719 359.582031 261.640625 C 360.179688 261.523438 360.773438 261.371094 361.363281 261.195312 C 361.949219 261.015625 362.523438 260.8125 363.089844 260.578125 C 363.65625 260.34375 364.210938 260.082031 364.75 259.792969 C 365.292969 259.503906 365.816406 259.1875 366.328125 258.847656 C 366.835938 258.507812 367.328125 258.140625 367.800781 257.753906 C 368.273438 257.363281 368.730469 256.953125 369.164062 256.519531 C 369.59375 256.085938 370.007812 255.632812 370.394531 255.160156 C 370.785156 254.683594 371.148438 254.191406 371.488281 253.683594 C 371.828125 253.175781 372.144531 252.648438 372.433594 252.109375 C 372.722656 251.566406 372.984375 251.015625 373.21875 250.449219 C 373.453125 249.882812 373.660156 249.304688 373.835938 248.71875 C 374.015625 248.132812 374.164062 247.539062 374.285156 246.9375 C 374.402344 246.335938 374.492188 245.730469 374.554688 245.121094 C 374.613281 244.511719 374.644531 243.898438 374.644531 243.285156 C 374.644531 242.671875 374.613281 242.0625 374.554688 241.453125 C 374.492188 240.84375 374.402344 240.238281 374.285156 239.636719 C 374.164062 239.035156 374.015625 238.441406 373.835938 237.855469 C 373.660156 237.265625 373.453125 236.691406 373.21875 236.125 C 372.984375 235.558594 372.722656 235.003906 372.433594 234.464844 C 372.144531 233.925781 371.828125 233.398438 371.488281 232.890625 C 371.148438 232.378906 370.785156 231.886719 370.394531 231.414062 C 370.007812 230.941406 369.59375 230.488281 369.164062 230.054688 C 368.730469 229.621094 368.273438 229.210938 367.800781 228.820312 C 367.328125 228.429688 366.835938 228.066406 366.328125 227.726562 C 365.816406 227.386719 365.292969 227.070312 364.75 226.78125 C 364.210938 226.492188 363.65625 226.230469 363.089844 225.996094 C 362.523438 225.761719 361.949219 225.554688 361.363281 225.378906 C 360.773438 225.199219 360.179688 225.050781 359.582031 224.933594 C 358.980469 224.8125 358.375 224.722656 357.761719 224.664062 C 357.152344 224.601562 356.542969 224.570312 355.929688 224.570312 Z M 355.929688 224.570312 " fill-opacity="1" fill-rule="nonzero"/></g><g clip-path="url(#2a5eafe11d)"><path fill="#ffffff" d="M 19.070312 37.429688 L 355.929688 37.429688 C 356.542969 37.429688 357.152344 37.398438 357.761719 37.339844 C 358.375 37.277344 358.980469 37.1875 359.582031 37.070312 C 360.179688 36.949219 360.773438 36.800781 361.363281 36.621094 C 361.949219 36.445312 362.523438 36.238281 363.089844 36.003906 C 363.65625 35.769531 364.210938 35.507812 364.75 35.21875 C 365.292969 34.929688 365.816406 34.617188 366.328125 34.273438 C 366.835938 33.933594 367.328125 33.570312 367.800781 33.179688 C 368.273438 32.792969 368.730469 32.378906 369.164062 31.949219 C 369.59375 31.515625 370.007812 31.058594 370.394531 30.585938 C 370.785156 30.113281 371.148438 29.621094 371.488281 29.113281 C 371.828125 28.601562 372.144531 28.078125 372.433594 27.535156 C 372.722656 26.996094 372.984375 26.441406 373.21875 25.875 C 373.453125 25.308594 373.660156 24.734375 373.835938 24.148438 C 374.015625 23.558594 374.164062 22.964844 374.285156 22.367188 C 374.402344 21.765625 374.492188 21.160156 374.554688 20.546875 C 374.613281 19.9375 374.644531 19.328125 374.644531 18.714844 C 374.644531 18.101562 374.613281 17.488281 374.554688 16.878906 C 374.492188 16.269531 374.402344 15.664062 374.285156 15.0625 C 374.164062 14.460938 374.015625 13.867188 373.835938 13.28125 C 373.660156 12.695312 373.453125 12.117188 373.21875 11.550781 C 372.984375 10.988281 372.722656 10.433594 372.433594 9.890625 C 372.144531 9.351562 371.828125 8.828125 371.488281 8.316406 C 371.148438 7.808594 370.785156 7.316406 370.394531 6.84375 C 370.007812 6.367188 369.59375 5.914062 369.164062 5.480469 C 368.730469 5.046875 368.273438 4.636719 367.800781 4.246094 C 367.328125 3.859375 366.835938 3.496094 366.328125 3.152344 C 365.816406 2.8125 365.292969 2.5 364.75 2.210938 C 364.210938 1.921875 363.65625 1.660156 363.089844 1.425781 C 362.523438 1.191406 361.949219 0.984375 361.363281 0.804688 C 360.773438 0.628906 360.179688 0.480469 359.582031 0.359375 C 358.980469 0.238281 358.375 0.148438 357.761719 0.0898438 C 357.152344 0.03125 356.542969 0 355.929688 0 L 19.070312 0 C 18.457031 0 17.847656 0.03125 17.238281 0.0898438 C 16.625 0.148438 16.019531 0.238281 15.417969 0.359375 C 14.820312 0.480469 14.226562 0.628906 13.636719 0.804688 C 13.050781 0.984375 12.476562 1.191406 11.910156 1.425781 C 11.34375 1.660156 10.789062 1.921875 10.25 2.210938 C 9.707031 2.5 9.183594 2.8125 8.671875 3.152344 C 8.164062 3.496094 7.671875 3.859375 7.199219 4.246094 C 6.726562 4.636719 6.269531 5.046875 5.835938 5.480469 C 5.40625 5.914062 4.992188 6.367188 4.605469 6.84375 C 4.214844 7.316406 3.851562 7.808594 3.511719 8.316406 C 3.167969 8.828125 2.855469 9.351562 2.566406 9.890625 C 2.277344 10.433594 2.015625 10.988281 1.78125 11.550781 C 1.546875 12.117188 1.339844 12.695312 1.164062 13.28125 C 0.984375 13.867188 0.835938 14.460938 0.714844 15.0625 C 0.597656 15.664062 0.507812 16.269531 0.445312 16.878906 C 0.386719 17.488281 0.355469 18.101562 0.355469 18.714844 C 0.355469 19.328125 0.386719 19.9375 0.445312 20.546875 C 0.507812 21.160156 0.597656 21.765625 0.714844 22.367188 C 0.835938 22.964844 0.984375 23.558594 1.164062 24.148438 C 1.339844 24.734375 1.546875 25.308594 1.78125 25.875 C 2.015625 26.441406 2.277344 26.996094 2.566406 27.535156 C 2.855469 28.078125 3.167969 28.601562 3.511719 29.113281 C 3.851562 29.621094 4.214844 30.113281 4.605469 30.585938 C 4.992188 31.058594 5.40625 31.515625 5.835938 31.949219 C 6.269531 32.378906 6.726562 32.792969 7.199219 33.179688 C 7.671875 33.570312 8.164062 33.933594 8.671875 34.273438 C 9.183594 34.617188 9.707031 34.929688 10.25 35.21875 C 10.789062 35.507812 11.34375 35.769531 11.910156 36.003906 C 12.476562 36.238281 13.050781 36.445312 13.636719 36.621094 C 14.226562 36.800781 14.820312 36.949219 15.417969 37.070312 C 16.019531 37.1875 16.625 37.277344 17.238281 37.339844 C 17.847656 37.398438 18.457031 37.429688 19.070312 37.429688 Z M 19.070312 37.429688 " fill-opacity="1" fill-rule="nonzero"/></g></svg>